<svg width="16" height="16" viewBox="0 0 16 16" fill="none" xmlns="http://www.w3.org/2000/svg">
<path fill-rule="evenodd" clip-rule="evenodd" d="M0.410002 0.0014986C0.222685 0.0346909 0.0724416 0.171365 0.0197581 0.352946C-0.0329254 0.536482 0.0217092 0.731731 0.160246 0.860584L7.29377 7.99879L0.160246 15.137C0.0646342 15.2307 0.010002 15.3576 0.00804891 15.4904C0.00804891 15.6251 0.0587787 15.752 0.152437 15.8477C0.246096 15.9434 0.372927 15.998 0.505607 16C0.638288 16 0.767072 15.9492 0.862678 15.8555L8.01169 8.71731L15.1452 15.8555C15.2408 15.9492 15.3677 16 15.5023 16C15.635 15.998 15.7618 15.9434 15.8555 15.8477C15.9491 15.752 15.9998 15.6251 15.9979 15.4904C15.9979 15.3576 15.9433 15.2307 15.8477 15.137L8.71413 7.99879L15.8477 0.860584C15.996 0.71805 16.0408 0.49937 15.9608 0.309961C15.8808 0.118617 15.6935 -0.00243947 15.4886 0.00146428C15.3599 0.00341665 15.2369 0.0541824 15.1452 0.142044L8.01169 7.28025L0.862678 0.142044C0.767067 0.0502786 0.63634 -0.000490093 0.503654 0.00146428C0.472435 -0.000488093 0.441215 -0.000488093 0.409996 0.00146428L0.410002 0.0014986Z" fill="black"/>
</svg>
